<?xml version="1.0" encoding="UTF-8" standalone="no"?>

<svg
   width="2550"
   height="1380"
   viewBox="0 0 674.68766 365.12495"
   version="1.1"
   id="svg1"
   xml:space="preserve"
   xmlns="http://www.w3.org/2000/svg"
><g
     id="layer1"
     transform="translate(-117.36067,-118.63772)"><g
       id="g142"
       transform="translate(-87.89608,-108.18842)"><path
         id="path1"
         style="fill:#000000;fill-opacity:1;stroke-width:0.632823"
         d="m 424.42214,243.45155 c -3.49923,-0.10243 -7.11428,-0.0722 -10.76629,0.0603 -7.30865,0.26515 -14.86802,0.94767 -22.4179,2.11622 -7.49418,1.15991 -15.10847,2.82337 -21.08539,4.68163 -4.92639,1.53168 -8.675,3.0723 -12.24596,4.70009 -3.66168,-1.66948 -7.59914,-3.40271 -12.83617,-4.95585 -5.99381,-1.77754 -13.62387,-3.33928 -21.12882,-4.39799 -7.55995,-1.06643 -15.12545,-1.64609 -22.43636,-1.81249 -7.2856,-0.16579 -14.45378,0.0774 -20.89192,0.95584 -6.46014,0.88147 -12.15638,2.3956 -16.99562,4.21232 -4.86077,1.82484 -8.82024,3.93616 -12.17013,6.11908 -3.38909,2.20847 -6.16135,4.49282 -8.99437,7.63562 -2.81121,3.11873 -5.61402,7.00478 -8.28653,12.35908 -2.63096,5.27106 -5.13687,11.9932 -6.531,18.62407 -1.40258,6.67002 -1.65772,13.14152 -1.63296,19.59794 0.0252,6.47546 0.33317,13.18554 1.10298,20.40089 0.76948,7.21198 1.99921,14.91552 3.93812,23.2266 1.94179,8.32347 4.583,17.20611 9.0034,29.24444 4.40315,11.99129 10.59539,27.16744 16.93536,41.17806 6.34928,14.03125 12.87185,26.95021 19.08109,38.07486 6.21822,11.14064 12.10025,20.44813 17.83998,29.11 5.73358,8.65255 11.33672,16.67683 16.52752,23.84919 5.1969,7.1807 9.99847,13.53286 15.41883,20.13448 5.40418,6.58189 11.41637,13.40418 16.59926,18.85605 4.95001,5.207 9.10926,9.12075 13.18335,12.93864 a 4.1765819,4.1765819 0 0 0 6.23506,0.98823 c 4.23431,-4.05826 8.53711,-8.18087 13.68504,-13.71782 5.13249,-5.52044 11.08391,-12.42283 16.42876,-19.0774 5.36059,-6.67415 10.10423,-13.08903 15.23601,-20.33899 5.12631,-7.24229 10.65606,-15.34182 16.31113,-24.07056 5.66134,-8.73837 11.45884,-18.12496 17.57641,-29.34853 6.10862,-11.20705 12.51562,-24.21029 18.73842,-38.32613 6.21364,-14.09493 12.27011,-29.35589 16.56526,-41.40553 4.31193,-12.0968 6.87177,-21.01547 8.7386,-29.36412 1.86413,-8.33644 3.024,-16.05392 3.72867,-23.27578 0.70452,-7.22486 0.9536,-13.93772 0.92059,-20.41319 -0.033,-6.45692 -0.34735,-12.92541 -1.80961,-19.57664 -1.45388,-6.61312 -4.02102,-13.30211 -6.69987,-18.53881 -2.72115,-5.31926 -5.56165,-9.17078 -8.40293,-12.25373 -2.86291,-3.10636 -5.65596,-5.35342 -9.06528,-7.51636 -3.36989,-2.13798 -7.35011,-4.19821 -12.22914,-5.958 -4.8579,-1.75224 -10.56744,-3.18749 -17.03457,-3.98155 -3.2315,-0.39671 -6.63376,-0.63164 -10.13302,-0.7341 z m -0.12174,4.17502 c 3.39495,0.0994 6.66538,0.32598 9.74611,0.70417 6.16137,0.75653 11.56316,2.11954 16.12544,3.76516 4.56228,1.64553 8.28567,3.57399 11.4102,5.55631 3.12456,1.98227 5.64971,4.01849 8.23201,6.82037 2.58225,2.8019 5.21999,6.36893 7.7553,11.32496 2.53529,4.95603 4.96891,11.3001 6.33919,17.53298 1.37029,6.23288 1.67811,12.35434 1.71043,18.70194 0.0324,6.3476 -0.21092,12.92195 -0.89969,19.98528 -0.6892,7.06328 -1.82438,14.61482 -3.64833,22.77163 -1.82393,8.15678 -4.33646,16.91871 -8.59761,28.87307 -4.26119,11.95436 -10.27029,27.10057 -16.4513,41.12151 -6.18097,14.02092 -12.53476,26.91546 -18.5839,38.01337 -6.04911,11.09796 -11.79365,20.39904 -17.41492,29.07557 -5.62124,8.67651 -11.11793,16.72801 -16.21481,23.92872 -5.09692,7.20072 -9.79376,13.55083 -15.08395,20.13735 -5.29016,6.58646 -11.17438,13.40881 -16.2312,18.84786 -5.05685,5.439 -9.28654,9.49235 -13.51656,13.54649 h -4.1e-4 l -0.002,-0.55785 c -4.22076,-3.95426 -8.44682,-7.91938 -13.49772,-13.23252 -5.10535,-5.37032 -11.04911,-12.11319 -16.39802,-18.62776 -5.34892,-6.51461 -10.10226,-12.80097 -15.26348,-19.93241 -5.16115,-7.13141 -10.7312,-15.10774 -16.42998,-23.70779 -5.69874,-8.6 -11.52683,-17.82233 -17.67519,-28.83784 -6.1483,-11.01547 -12.61564,-23.82434 -18.92207,-37.76088 -6.30643,-13.93654 -12.45118,-28.99922 -16.81936,-40.89525 -4.36817,-11.89609 -6.95922,-20.62461 -8.85625,-28.75627 -1.89706,-8.13161 -3.10069,-15.66645 -3.85327,-22.71998 -0.75256,-7.05361 -1.05498,-13.62495 -1.07963,-19.97258 -0.0243,-6.34765 0.22873,-12.47225 1.5432,-18.72326 1.31429,-6.25104 3.69028,-12.62905 6.18097,-17.61904 2.49069,-4.99003 5.09672,-8.59117 7.65367,-11.42784 2.557,-2.83661 5.06473,-4.90787 8.17133,-6.93227 3.10655,-2.02434 6.81172,-4.00083 11.35898,-5.70796 4.54729,-1.70713 9.93592,-3.14552 16.09021,-3.98525 6.15423,-0.83978 13.07382,-1.08188 20.23283,-0.91897 7.15902,0.16296 14.55715,0.73235 21.94696,1.77479 7.38984,1.04247 14.76951,2.55855 20.52427,4.2652 5.71447,1.69474 9.91262,3.62823 14.01334,5.51245 3.93985,-1.86708 8.00135,-3.56376 13.49648,-5.27226 5.73906,-1.78432 13.10531,-3.40086 20.48533,-4.5431 7.37999,-1.14227 14.77387,-1.81025 21.93097,-2.06989 3.57854,-0.12982 7.09795,-0.1576 10.49289,-0.0582 z" /><text
         xml:space="preserve"
         style="font-style:normal;font-variant:normal;font-weight:normal;font-stretch:normal;font-size:264.583px;font-family:'Kumbh Sans';-inkscape-font-specification:'Kumbh Sans';text-align:start;writing-mode:lr-tb;direction:ltr;text-anchor:start;fill:#ff0000;fill-opacity:0.236337;stroke-width:0.264583"
         x="469.0433"
         y="508.20764"
         id="text2"><tspan
           id="tspan2"
           style="font-style:normal;font-variant:normal;font-weight:100;font-stretch:normal;font-size:264.583px;font-family:'Kumbh Sans';-inkscape-font-specification:'Kumbh Sans Thin';fill:#000000;fill-opacity:1;stroke-width:0.264583"
           x="469.0433"
           y="508.20764">uija</tspan></text><text
         xml:space="preserve"
         style="font-style:normal;font-variant:normal;font-weight:normal;font-stretch:normal;font-size:264.583px;font-family:'Kumbh Sans';-inkscape-font-specification:'Kumbh Sans';text-align:start;writing-mode:lr-tb;direction:ltr;text-anchor:start;fill:#ff0000;fill-opacity:0.236337;stroke-width:0.264583"
         x="278.44788"
         y="508.20764"
         id="text142"><tspan
           id="tspan142"
           style="font-style:normal;font-variant:normal;font-weight:100;font-stretch:normal;font-size:264.583px;font-family:'Kumbh Sans';-inkscape-font-specification:'Kumbh Sans Thin';fill:#000000;fill-opacity:1;stroke-width:0.264583"
           x="278.44788"
           y="508.20764">o</tspan></text></g></g></svg>
